<svg id="planet" width="100" height="80" viewBox="0 0 100 80" fill="none" xmlns="http://www.w3.org/2000/svg">
  <g clip-path="url(#clip0_300_727)">
    <path
      d="M89.22 35.56C99.22 26.71 99.98 18.56 97.22 13.86C93.8 8.00999 89.0199 7.00999 73.8799 8.52999C63.5999 9.81999 51.8799 13.39 40.3099 18.83C28.7399 24.27 18.4699 31.04 10.9199 38.16L9.17994 39.97C1.64994 48.16 -1.13 55.58 1.36 60.87C3.85 66.16 9.70999 70.37 22.85 68.17"
      stroke="#FFB800" stroke-width="1.5" stroke-miterlimit="10" />
    <path
      d="M73.9 8.51C68.185 4.17056 61.3906 1.47955 54.2541 0.729072C47.1177 -0.0214031 39.9121 1.19734 33.4194 4.25301C26.9268 7.30869 21.3951 12.0845 17.4252 18.0621C13.4552 24.0396 11.1984 30.9904 10.9 38.16C10.9 38.24 10.9 39.73 10.9 39.81C10.8915 45.6315 12.1794 51.3819 14.6701 56.6436C17.1609 61.9054 20.7921 66.5465 25.3 70.23C25.66 70.53 26.03 70.82 26.41 71.11C32.125 75.4495 38.9195 78.1405 46.0559 78.891C53.1923 79.6414 60.3981 78.4227 66.8907 75.367C73.3834 72.3113 78.9149 67.5355 82.8849 61.558C86.8549 55.5804 89.1116 48.6296 89.41 41.46C89.41 40.99 89.41 40.52 89.41 40.05V39.83C89.46 27.56 83.41 15.32 73.9 8.51Z"
      stroke="#FFB800" stroke-width="1.5" stroke-miterlimit="10" />
  </g>
  <defs>
    <clipPath id="clip0_300_727">
      <rect width="99.11" height="79.62" fill="white" />
    </clipPath>
  </defs>
</svg>