<svg id="planet-pmr" width="347" height="272" viewBox="0 0 347 272" fill="none" xmlns="http://www.w3.org/2000/svg"
  xmlns:xlink="http://www.w3.org/1999/xlink">
  <g clip-path="url(#clip0_302_730)">
    <path
      d="M173.5 249.173C235.986 249.173 286.641 198.503 286.641 136C286.641 73.4966 235.986 22.8275 173.5 22.8275C111.014 22.8275 60.3585 73.4966 60.3585 136C60.3585 198.503 111.014 249.173 173.5 249.173Z"
      stroke="#FFB800" stroke-width="1.5" stroke-miterlimit="10" />
    <path
      d="M173.5 271.054C248.068 271.054 308.517 210.588 308.517 136C308.517 61.4118 248.068 0.946045 173.5 0.946045C98.9322 0.946045 38.483 61.4118 38.483 136C38.483 210.588 98.9322 271.054 173.5 271.054Z"
      stroke="#FFB800" stroke-width="1.5" stroke-miterlimit="10" />
    <path
      d="M40.4124 112.804C8.67263 143.313 -6.18527 176.461 4.25594 202.903C14.6971 229.344 48.196 243.392 92.2118 243.969C92.2118 243.969 201.381 243.894 306.588 159.272C338.327 128.772 353.176 95.6143 342.744 69.1825C332.312 42.7507 298.804 28.6928 254.788 28.1157"
      stroke="#FFB800" stroke-width="1.5" stroke-miterlimit="10" />
    <rect x="37" y="-12" width="284" height="296" fill="url(#pattern0)" />
  </g>
</svg>