<svg id="fire" width="120" height="137" viewBox="0 0 120 137" fill="none" xmlns="http://www.w3.org/2000/svg">
  <path
    d="M86.3534 135.561L86.3038 135.58L86.2573 135.606C86.0261 135.735 85.764 135.797 85.4995 135.787C85.245 135.777 84.9976 135.7 84.7825 135.564C84.5096 135.338 84.3673 134.969 84.3684 134.416C84.3695 133.847 84.5265 133.21 84.7116 132.659L84.7118 132.659L84.7157 132.647C84.9967 131.759 85.4998 129.784 85.3216 127.671C85.1415 125.536 84.2517 123.186 81.6787 121.763L81.6391 121.741L81.5972 121.724C80.1822 121.151 78.6936 120.78 77.1755 120.623L76.6423 120.55C75.5742 120.372 73.7729 120.297 71.6059 120.231C71.6048 120.231 71.6037 120.231 71.6026 120.231L71.5438 120.229C66.3535 120.042 58.4602 119.757 50.8847 117.72C43.3043 115.683 36.1749 111.927 32.3547 104.9C30.3847 101.268 30.386 97.0263 30.4067 92.2732C30.4674 89.6158 30.3672 86.957 30.1065 84.3114L30.1061 84.3071C29.7231 80.6335 28.8443 77.0283 27.4938 73.59L27.4883 73.576L27.4822 73.5622C25.0208 67.9685 20.1322 67.0654 17.8358 68.0759C15.4518 69.1249 13.92 71.1589 12.8688 73.4915C11.8201 75.8187 11.2128 78.5257 10.7237 81.0369L10.7176 81.0681L10.7142 81.0997C10.6767 81.4467 10.5452 81.7766 10.3341 82.0538C10.1327 82.3182 9.86616 82.5251 9.56096 82.6546C9.25604 82.7231 8.93799 82.7101 8.63892 82.6162C8.3246 82.5176 8.04354 82.3336 7.82711 82.0845L7.82717 82.0845L7.81991 82.0764C6.81345 80.9516 6.01914 79.6535 5.47564 78.2452L5.46893 78.2278L5.46137 78.2108C3.41451 73.6025 2.10781 68.7001 1.58959 63.685L1.58823 63.6718L1.5864 63.6587C0.918131 58.8598 1.16238 53.9787 2.30621 49.2727C5.32117 38.8207 11.2859 29.4645 19.4848 22.3266L19.4922 22.3202L19.4994 22.3136C27.9608 14.5489 39.0057 9.36326 48.0018 6.11322C52.4934 4.49053 56.4598 3.35547 59.3156 2.6249C62.0825 1.91708 63.7693 1.59837 63.8937 1.57485C63.8988 1.57389 63.9013 1.57342 63.9011 1.57344L63.9182 1.57154L63.9351 1.56886C66.9031 1.09908 73.3879 0.316718 80.2377 1.05007C87.108 1.78562 94.1904 4.0286 98.542 9.46559L98.5567 9.48401L98.5726 9.50147C98.7695 9.718 98.9002 9.98647 98.9493 10.275C98.9955 10.5464 98.9676 10.8246 98.8693 11.0806C98.6896 11.3525 98.3759 11.5239 97.8594 11.5903C97.308 11.6611 96.6488 11.5926 95.9869 11.4835C95.2275 11.3584 92.8467 11.2336 90.5052 11.7593C88.2078 12.2752 85.6201 13.5029 85.0161 16.329C84.817 16.9879 84.8419 17.6947 85.0877 18.3386C85.3382 18.9948 85.8033 19.547 86.4073 19.9052L86.4387 19.9238L86.4717 19.9393C86.5806 19.9903 86.8044 20.0693 87.0175 20.143C87.2528 20.2245 87.542 20.3218 87.823 20.4162L87.8247 20.4167C92.855 22.0926 107.767 27.0888 113.964 41.1726C120.77 56.6409 119.22 67.9509 118.603 70.9692C118.557 71.1951 118.406 71.8644 118.069 72.5087C117.724 73.167 117.264 73.6534 116.663 73.7808C116.094 73.9013 115.472 73.6266 114.835 73.0622C114.217 72.5153 113.735 71.8277 113.49 71.4642C112.842 70.5009 110.804 67.6563 107.944 65.4638C105.09 63.2759 101.245 61.6177 97.1233 63.4315C93.7342 64.9228 91.5291 67.4013 90.6684 70.5945C89.8146 73.7616 90.3088 77.5337 92.1002 81.605C92.8482 83.3049 93.9439 85.2544 95.1293 87.3564C95.1294 87.3565 95.1296 87.3567 95.1297 87.3569L95.1818 87.4501C98.5898 93.5348 102.726 100.948 102.905 109.126C103.083 117.202 99.3946 126.185 86.7706 135.402L86.3534 135.561Z"
    stroke="#FF3D00" stroke-width="1.5" />
</svg>