<svg width="182" height="182" viewBox="0 0 182 182" fill="none" xmlns="http://www.w3.org/2000/svg">
<path d="M90.6233 130.047C83.3738 130.099 76.1406 129.353 69.0545 127.821C62.4717 126.422 56.486 123.013 51.9246 118.065C49.2782 115.118 47.9068 112.399 47.8587 109.981C47.7023 102.403 49.2782 87.318 52.5381 79.6793C52.3216 77.8869 50.6495 62.6937 56.4958 52.974C56.8257 52.4203 57.2894 51.9584 57.8443 51.6305C58.3991 51.3026 59.0275 51.1193 59.6716 51.0974C66.8369 51.0142 73.8123 53.4016 79.4239 57.8579C81.1682 57.6294 92.1751 56.2941 101.185 57.9782C102.701 56.9677 112.132 50.9049 121.575 51.0011C122.307 51.0044 123.027 51.1791 123.679 51.5113C124.331 51.8434 124.896 52.3238 125.328 52.9138C127.53 55.9332 130.2 62.8501 130.453 78.6328C130.814 79.9921 135.096 96.4724 134.603 106.192C134.098 116.309 123.343 123.033 122.886 123.382C122.429 123.731 114.538 129.517 93.4141 130.01L90.6233 130.047ZM60.4535 52.192H59.7317C59.2718 52.2078 58.8233 52.3396 58.4279 52.5752C58.0325 52.8107 57.7031 53.1424 57.4702 53.5393C51.5878 63.3193 53.6568 79.5109 53.6809 79.6793V79.8357L53.6207 79.968C50.3848 87.4142 48.809 102.415 48.9774 109.945C48.9774 112.099 50.2886 114.577 52.7667 117.319C57.1805 122.11 62.9798 125.403 69.3553 126.738C77.2569 128.436 85.3363 129.164 93.4141 128.904C114.129 128.411 122.201 122.528 122.285 122.468C122.369 122.408 133.039 115.671 133.52 106.132C134.014 96.3882 129.43 79.0297 129.382 78.8493V78.717C129.13 62.3569 126.194 55.9332 124.462 53.5634C124.13 53.1162 123.698 52.7521 123.201 52.4996C122.705 52.247 122.156 52.113 121.599 52.1078C111.976 51.9875 101.763 58.9406 101.654 59.0127L101.474 59.1451H101.245C91.6218 57.3046 79.5082 59.0127 79.3879 59.0248H79.1473L78.9668 58.8804C73.7119 54.6528 67.1969 52.2991 60.4535 52.192Z" fill="#00FFB2"/>
<path d="M78.5939 101.753C76.7592 101.75 75.0005 101.021 73.7021 99.7247C72.4037 98.4285 71.6712 96.671 71.6649 94.8364C71.6681 92.9997 72.3991 91.2392 73.6979 89.9404C74.9966 88.6417 76.7572 87.9107 78.5939 87.9075C80.4285 87.9138 82.1859 88.6463 83.4821 89.9447C84.7782 91.2431 85.5076 93.0018 85.5108 94.8364C85.5076 96.6699 84.7778 98.4274 83.4813 99.7239C82.1848 101.02 80.4274 101.75 78.5939 101.753ZM78.5939 89.0142C77.0497 89.0142 75.5688 89.6276 74.4769 90.7195C73.3851 91.8114 72.7716 93.2923 72.7716 94.8364C72.7748 96.3785 73.3896 97.8563 74.4811 98.9456C75.5727 100.035 77.0518 100.647 78.5939 100.647C79.3569 100.647 80.1124 100.496 80.8174 100.204C81.5223 99.9124 82.1628 99.4844 82.7023 98.9449C83.2419 98.4053 83.6698 97.7648 83.9618 97.0599C84.2538 96.355 84.4041 95.5994 84.4041 94.8364C84.4041 93.2943 83.7923 91.8153 82.7031 90.7237C81.6138 89.6322 80.1359 89.0174 78.5939 89.0142Z" fill="#00FFB2"/>
<path d="M91.5856 115.527C86.1085 115.477 80.718 114.155 75.8391 111.666L76.3924 110.703C76.5488 110.799 92.0307 119.376 106.189 110.138L106.791 111.064C102.273 114.019 96.9833 115.571 91.5856 115.527Z" fill="#00FFB2"/>
<path d="M90.8519 107.816C87.6039 107.816 85.0416 106.168 85.0416 104.063C85.0416 101.958 87.6039 100.322 90.8519 100.322C94.0998 100.322 96.6621 101.97 96.6621 104.063C96.6621 106.156 94.1118 107.816 90.8519 107.816ZM90.8519 101.428C88.3016 101.428 86.1484 102.631 86.1484 104.063C86.1484 105.494 88.3016 106.709 90.8519 106.709C93.4021 106.709 95.5554 105.506 95.5554 104.063C95.5554 102.619 93.4141 101.428 90.8519 101.428Z" fill="#00FFB2"/>
<path d="M82.8282 90.8547C82.8282 90.8547 79.3878 86.5362 70.9792 86.5362V85.4294C79.9772 85.4294 83.562 89.9886 83.7064 90.2412L82.8282 90.8547Z" fill="#00FFB2"/>
<path d="M103.904 101.753C102.077 101.741 100.328 101.007 99.0396 99.7113C97.7509 98.4158 97.0261 96.6637 97.023 94.8364C97.0261 93.0018 97.7555 91.2431 99.0517 89.9447C100.348 88.6463 102.105 87.9138 103.94 87.9075C105.777 87.9107 107.537 88.6417 108.836 89.9404C110.135 91.2392 110.866 92.9997 110.869 94.8364C110.867 95.7484 110.686 96.6511 110.334 97.4927C109.983 98.3343 109.469 99.0983 108.822 99.741C108.175 100.384 107.408 100.892 106.564 101.237C105.72 101.583 104.816 101.758 103.904 101.753ZM103.904 89.0142C102.362 89.0174 100.884 89.6322 99.7946 90.7237C98.7054 91.8153 98.0936 93.2943 98.0936 94.8364C98.0936 96.3774 98.7057 97.8552 99.7954 98.9449C100.885 100.035 102.363 100.647 103.904 100.647C105.446 100.647 106.925 100.035 108.016 98.9456C109.108 97.8563 109.723 96.3785 109.726 94.8364C109.726 94.0718 109.575 93.3147 109.283 92.6084C108.99 91.902 108.561 91.2601 108.021 90.7195C107.48 90.1788 106.838 89.75 106.132 89.4574C105.426 89.1648 104.668 89.0142 103.904 89.0142Z" fill="#00FFB2"/>
<path d="M99.6695 90.8547L98.7913 90.181C98.9356 89.9886 102.532 85.3693 111.518 85.3693V86.476C103.11 86.5361 99.7055 90.8186 99.6695 90.8547Z" fill="#00FFB2"/>
<path d="M120.336 69.6347H114.466C114.171 69.6368 113.879 69.5805 113.607 69.469C113.334 69.3575 113.086 69.193 112.878 68.9851L110.087 66.1822C109.885 65.9822 109.725 65.7443 109.615 65.4821C109.506 65.2199 109.45 64.9386 109.449 64.6545V61.9358C109.446 61.2351 109.718 60.5611 110.207 60.0592C111.548 58.7133 113.162 57.6718 114.941 57.0055C116.72 56.3392 118.622 56.0637 120.517 56.1978C121.017 56.2291 121.488 56.4419 121.843 56.7963C122.197 57.1507 122.41 57.6223 122.441 58.1225C122.76 61.5691 122.561 65.0439 121.852 68.4317C121.775 68.7753 121.582 69.0821 121.306 69.301C121.031 69.5199 120.688 69.6377 120.336 69.6347ZM119.65 57.2684C118.04 57.2671 116.445 57.5854 114.958 58.2048C113.471 58.8243 112.122 59.7327 110.989 60.8772C110.707 61.1711 110.551 61.5643 110.556 61.9719V64.6545C110.554 64.7936 110.581 64.9317 110.635 65.06C110.688 65.1884 110.768 65.3042 110.869 65.4003L113.66 68.2032C113.766 68.3078 113.892 68.3903 114.03 68.4461C114.169 68.5018 114.317 68.5296 114.466 68.528H120.336C120.439 68.5304 120.54 68.4969 120.621 68.4333C120.702 68.3697 120.759 68.2798 120.781 68.1791C121.455 64.9003 121.645 61.5406 121.346 58.2067C121.33 57.9717 121.23 57.7503 121.065 57.5826C120.899 57.4149 120.679 57.312 120.444 57.2925L119.65 57.2684Z" fill="#00FFB2"/>
<path d="M67.7553 69.6347H61.897C61.5428 69.6405 61.1975 69.5241 60.9192 69.3049C60.6409 69.0858 60.4467 68.7774 60.3693 68.4318C59.6598 65.044 59.4611 61.5691 59.7798 58.1226C59.8139 57.6213 60.0292 57.1495 60.3856 56.7954C60.742 56.4412 61.2151 56.2288 61.7166 56.1978C63.6095 56.0656 65.5087 56.3419 67.2853 57.0082C69.062 57.6744 70.6746 58.715 72.0138 60.0593C72.5028 60.5612 72.775 61.2352 72.7716 61.9359V64.6545C72.7737 64.9379 72.7194 65.2189 72.612 65.4811C72.5046 65.7434 72.3463 65.9817 72.1461 66.1823L69.3553 68.9851C69.1453 69.1945 68.8956 69.3599 68.6209 69.4714C68.3461 69.583 68.0518 69.6385 67.7553 69.6347ZM61.7406 57.2925C61.5058 57.3121 61.2858 57.415 61.1203 57.5827C60.9548 57.7504 60.8548 57.9717 60.8384 58.2068C60.5334 61.5406 60.724 64.9012 61.4038 68.1792C61.4239 68.281 61.4798 68.3722 61.5615 68.4363C61.6432 68.5003 61.7452 68.5329 61.8489 68.528H67.7072C67.8565 68.5311 68.0049 68.5039 68.1434 68.448C68.2819 68.3922 68.4077 68.3089 68.5132 68.2032L71.3161 65.4004C71.4129 65.302 71.4893 65.1855 71.5409 65.0575C71.5926 64.9295 71.6183 64.7925 71.6168 64.6545V61.9359C71.6213 61.5306 71.4707 61.139 71.1958 60.8412C69.9673 59.619 68.4938 58.6708 66.8724 58.0591C65.251 57.4475 63.5184 57.1862 61.7888 57.2925H61.7406Z" fill="#00FFB2"/>
<path d="M90.5 166C132.197 166 166 132.197 166 90.5C166 48.8025 132.197 15 90.5 15C48.8025 15 15 48.8025 15 90.5C15 132.197 48.8025 166 90.5 166Z" stroke="#FFB800" stroke-width="1.5" stroke-miterlimit="10"/>
<path d="M91 181C140.706 181 181 140.706 181 91C181 41.2944 140.706 1 91 1C41.2944 1 1 41.2944 1 91C1 140.706 41.2944 181 91 181Z" stroke="#FFB800" stroke-width="1.5" stroke-miterlimit="10"/>
</svg>
