<svg width="119" height="126" viewBox="0 0 119 126" fill="none" xmlns="http://www.w3.org/2000/svg">
  <g clip-path="url(#clip0_302_734)">
    <path
      d="M82.5761 95.0939C95.2258 99.3728 102.676 95.9816 105.382 91.2507C108.759 85.3755 107.251 80.7306 98.4071 68.3484C92.1784 60.0691 83.2556 51.6735 72.7847 44.3375C62.3137 37.0014 51.3348 31.4544 41.404 28.4417L38.9686 27.8314C28.1193 25.3678 20.299 26.6433 16.9462 31.4332C13.5933 36.2231 12.8526 43.4004 21.2924 53.7092"
      stroke="#FFB800" stroke-width="1.5" stroke-miterlimit="10" />
    <path
      d="M98.4344 68.3559C99.3595 61.24 98.3177 54.0067 95.422 47.4411C92.5264 40.8755 87.8876 35.2286 82.0091 31.1133C76.1306 26.9981 69.2371 24.5717 62.077 24.0976C54.9169 23.6236 47.7638 25.12 41.3941 28.4244C41.3247 28.4641 40.0317 29.2047 39.9623 29.2444C34.9065 32.1304 30.5568 36.1059 27.2288 40.8824C23.9009 45.6589 21.6784 51.1165 20.7225 56.859C20.6411 57.3205 20.5733 57.7857 20.5106 58.2596C19.5854 65.3755 20.6272 72.6088 23.5229 79.1744C26.4185 85.74 31.0575 91.387 36.9359 95.5023C42.8144 99.6175 49.7078 102.044 56.8679 102.518C64.028 102.992 71.1812 101.496 77.5508 98.1911C77.9587 97.9575 78.3665 97.7239 78.7744 97.4903L78.9653 97.381C89.6373 91.3261 97.2516 79.9928 98.4344 68.3559Z"
      stroke="#FFB800" stroke-width="1.5" stroke-miterlimit="10" />
  </g>
  <defs>
    <clipPath id="clip0_302_734">
      <rect width="99.11" height="79.62" fill="white" transform="translate(69.0898) rotate(60.1976)" />
    </clipPath>
  </defs>
</svg>