<svg id="spaceship" width="386" height="412" viewBox="0 0 386 412" fill="none" xmlns="http://www.w3.org/2000/svg">
  <path
    d="M97.0838 108.331C99.1826 106.576 101.099 104.83 103.927 102.712L104.325 102.408L106.058 101.129L106.645 100.699L108.315 99.5055L109.04 99.0003L110.715 97.8478L111.519 97.2935L113.253 96.1438L114.098 95.5856L115.933 94.4056L116.801 93.8661C117.433 93.4542 118.088 93.0513 118.766 92.6573L119.616 92.1403L121.803 90.8483L122.542 90.4083L125.168 88.9377L125.601 88.7472C127.729 87.5815 129.921 86.4306 132.207 85.296C133.325 84.8039 134.413 84.2105 135.545 83.6838L136.279 83.361L139.057 82.1386L141.101 81.2391L142.629 80.5671L144.885 79.6602L146.196 79.0834L148.114 78.354L149.462 77.8612L151.946 76.983L153.293 76.5196L155.917 75.6657L157.272 75.2557L159.44 74.6029L160.806 74.2168C161.749 73.9453 162.702 73.6978 163.667 73.445L164.722 73.1671C165.729 72.9105 166.758 72.6725 167.787 72.4346L169.096 72.1455C169.91 71.9735 170.719 71.7895 171.538 71.6295L172.862 71.3765C173.944 71.1587 175.023 70.9702 176.115 70.7764L176.826 70.664C177.989 70.4678 179.174 70.2903 180.347 70.118L181.703 69.937C182.597 69.8159 183.508 69.7015 184.425 69.599L185.786 69.4301"
    stroke="#F8AC17" stroke-width="1.5" stroke-miterlimit="10" />
  <path
    d="M165.018 60.4982L162.097 61.1673L160.247 61.5946C159.289 61.8301 158.341 62.0896 157.375 62.3424L155.462 62.8547L152.794 63.6417C152.137 63.8449 151.457 64.0293 150.805 64.2444L148.449 65.0231C147.725 65.27 146.991 65.4929 146.284 65.7465L144.416 66.4254C140.936 67.6842 137.581 69.0314 134.37 70.4442L133.625 70.7723C132.723 71.1691 131.845 71.5554 130.955 71.947L129.668 72.5131L127.306 73.6675L125.889 74.3625C125.131 74.6959 124.452 75.1094 123.727 75.4855C123.234 75.7024 122.717 75.93 122.272 76.255C121.562 76.5672 120.918 76.9941 120.234 77.3664L118.825 78.144L116.869 79.277L115.543 80.0468L113.639 81.1999L112.438 81.9289L110.488 83.1737L109.511 83.7902L107.45 85.1413L106.774 85.5961L104.472 87.1822"
    stroke="#F8AC17" stroke-width="1.5" stroke-miterlimit="10" />
  <path
    d="M168.515 207.774C144.489 204.747 126.409 194.976 114.75 178.755C92.9395 148.401 101.329 105.288 101.421 104.846"
    stroke="#F8AC17" stroke-width="1.5" stroke-miterlimit="10" />
  <path
    d="M210.593 189.259C224.581 169.505 229.603 149.57 225.52 130.015C217.876 93.4271 180.411 70.4912 180.034 70.2556"
    stroke="#F8AC17" stroke-width="1.5" stroke-miterlimit="10" />
  <path
    d="M188.364 93.688L187.189 93.8895C160.736 98.9184 135.772 109.903 114.192 126.009L113.25 126.739L112.878 125.599C111.909 122.586 111.449 119.433 111.514 116.268L111.53 115.946L111.771 115.711C112.019 115.459 137.168 91.1233 181.173 85.1735L181.539 85.1268L181.828 85.3581C184.205 87.4479 186.219 89.9178 187.786 92.6671L188.364 93.688Z"
    stroke="#F8AC17" stroke-width="1.5" stroke-miterlimit="10" />
  <path
    d="M196.291 260.494L175.991 269.426C175.211 269.766 174.327 269.783 173.535 269.474C172.742 269.165 172.105 268.554 171.763 267.776L162.783 247.367C162.612 246.982 162.518 246.568 162.508 246.147C162.498 245.726 162.571 245.307 162.723 244.914L165.13 238.739C165.284 238.347 165.514 237.989 165.807 237.686C166.099 237.383 166.449 237.14 166.835 236.971L178.549 231.818C179.329 231.48 180.209 231.457 181.004 231.755L187.171 234.157C187.966 234.464 188.606 235.074 188.951 235.853L197.931 256.262C198.274 257.04 198.293 257.922 197.986 258.715C197.678 259.508 197.069 260.148 196.291 260.494Z"
    stroke="#F8AC17" stroke-width="1.5" stroke-miterlimit="10" />
  <path
    d="M167.686 352.854L119.172 242.597C118.599 241.295 118.567 239.818 119.084 238.491C119.602 237.164 120.625 236.097 121.93 235.523L158.007 219.648C159.309 219.094 160.777 219.074 162.092 219.591C163.408 220.109 164.466 221.124 165.038 222.415L166.813 226.449C167.207 227.344 167.94 228.045 168.852 228.399C169.765 228.753 170.781 228.73 171.677 228.336L222.414 206.011C223.31 205.616 224.013 204.883 224.369 203.971C224.724 203.06 224.702 202.045 224.309 201.15L222.534 197.117C221.961 195.814 221.929 194.337 222.447 193.011C222.964 191.684 223.987 190.616 225.292 190.042L262.981 173.459C264.285 172.885 265.764 172.851 267.092 173.366C268.419 173.881 269.487 174.902 270.06 176.205L318.564 286.438"
    stroke="#F8AC17" stroke-width="1.5" stroke-miterlimit="10" />
  <path
    d="M306.512 315.127L272.176 237.092C271.721 236.057 270.872 235.246 269.817 234.836C268.763 234.427 267.588 234.454 266.551 234.91L245.349 244.239C244.753 244.502 244.225 244.897 243.805 245.395C243.384 245.893 243.083 246.48 242.924 247.111L241.361 253.345C241.264 253.728 241.081 254.084 240.826 254.387C240.572 254.69 240.253 254.932 239.892 255.095L197.645 273.684C197.281 273.84 196.887 273.912 196.492 273.895C196.096 273.878 195.71 273.772 195.362 273.585L189.71 270.526C189.134 270.22 188.496 270.047 187.843 270.022C187.191 269.996 186.541 270.118 185.942 270.379L164.752 279.702C164.238 279.927 163.773 280.25 163.384 280.655C162.995 281.059 162.69 281.537 162.486 282.059C162.283 282.582 162.184 283.139 162.197 283.699C162.21 284.259 162.333 284.812 162.56 285.324L196.897 363.359"
    stroke="#F8AC17" stroke-width="1.5" stroke-miterlimit="10" />
  <path
    d="M294.803 330.467L271.343 277.151C270.493 275.219 269.464 274.869 266.959 274.037L242.822 265.441L242.542 265.392C241.762 265.376 240.987 265.531 240.273 265.846L204.424 281.62C203.706 281.937 203.065 282.405 202.544 282.992L192.555 306.646L192.034 308.007C191.305 309.905 191.082 310.475 191.816 312.144L215.276 365.46"
    stroke="#F8AC17" stroke-width="1.5" stroke-miterlimit="10" />
  <path
    d="M88.5335 167.062L93.8252 168.029C94.3425 168.131 94.8077 168.41 95.1415 168.817C95.4753 169.225 95.6567 169.736 95.6546 170.262C95.5909 176.022 95.5086 195.604 97.1301 205.781C97.1866 206.113 97.1578 206.453 97.0463 206.77C96.9347 207.087 96.7443 207.371 96.4928 207.595C96.3406 207.683 96.1793 207.754 96.0117 207.807C95.5581 208 95.0469 208.009 94.5873 207.832L89.623 207.021"
    stroke="#F8AC17" stroke-width="1.5" stroke-miterlimit="10" />
  <path
    d="M234.672 102.76L231.822 107.309C231.542 107.758 231.429 108.29 231.502 108.813C231.575 109.337 231.829 109.817 232.22 110.172C236.51 114.016 251.003 127.185 257.423 135.251C257.63 135.515 257.9 135.723 258.209 135.855C258.518 135.987 258.856 136.039 259.19 136.006C259.362 135.952 259.527 135.879 259.684 135.789C260.131 135.583 260.482 135.213 260.664 134.756L263.408 130.554"
    stroke="#F8AC17" stroke-width="1.5" stroke-miterlimit="10" />
  <path
    d="M186.366 191.809C180.22 194.513 173.411 195.337 166.801 194.177C160.191 193.017 154.076 189.924 149.23 185.291C144.384 180.657 141.024 174.691 139.575 168.145C138.126 161.6 138.654 154.77 141.09 148.519C143.527 142.269 147.764 136.878 153.266 133.029C158.767 129.179 165.285 127.044 171.997 126.894C178.708 126.743 185.311 128.584 190.97 132.183C196.629 135.782 201.091 140.978 203.79 147.114C207.396 155.343 207.587 164.668 204.321 173.046C201.054 181.424 194.598 188.171 186.366 191.809Z"
    stroke="#F8AC17" stroke-width="1.5" stroke-miterlimit="10" />
  <path
    d="M191.908 203.915C183.221 207.737 173.599 208.902 164.257 207.262C154.914 205.622 146.272 201.252 139.423 194.703C132.574 188.154 127.825 179.721 125.778 170.471C123.73 161.221 124.475 151.568 127.92 142.734C131.364 133.899 137.352 126.28 145.127 120.84C152.902 115.4 162.114 112.383 171.6 112.17C181.085 111.957 190.417 114.559 198.415 119.645C206.413 124.732 212.719 132.075 216.534 140.747C221.636 152.376 221.909 165.559 217.292 177.401C212.675 189.243 203.546 198.779 191.908 203.915V203.915Z"
    stroke="#F8AC17" stroke-width="1.5" stroke-miterlimit="10" />
  <path
    d="M157.899 126.037C157.295 126.303 156.625 126.384 155.976 126.27C155.326 126.156 154.725 125.852 154.249 125.396C153.772 124.941 153.442 124.354 153.299 123.711C153.157 123.067 153.209 122.396 153.448 121.782C153.688 121.167 154.104 120.637 154.645 120.259C155.186 119.881 155.827 119.671 156.486 119.656C157.146 119.641 157.795 119.822 158.351 120.176C158.908 120.53 159.346 121.04 159.612 121.643C159.967 122.452 159.987 123.369 159.666 124.193C159.345 125.017 158.709 125.68 157.899 126.037V126.037Z"
    stroke="#F8AC17" stroke-width="1.5" stroke-miterlimit="10" />
  <path
    d="M211.226 146.722C210.622 146.988 209.952 147.069 209.303 146.955C208.653 146.841 208.052 146.537 207.575 146.082C207.099 145.626 206.769 145.04 206.626 144.396C206.484 143.753 206.536 143.081 206.775 142.467C207.015 141.853 207.431 141.323 207.972 140.944C208.513 140.566 209.154 140.356 209.813 140.341C210.473 140.326 211.122 140.507 211.678 140.861C212.235 141.215 212.673 141.726 212.939 142.329C213.295 143.138 213.314 144.055 212.993 144.879C212.671 145.703 212.036 146.366 211.226 146.722V146.722Z"
    stroke="#F8AC17" stroke-width="1.5" stroke-miterlimit="10" />
  <path
    d="M136.509 179.598C135.905 179.864 135.236 179.945 134.586 179.831C133.936 179.717 133.335 179.413 132.859 178.958C132.382 178.502 132.052 177.916 131.91 177.272C131.767 176.629 131.819 175.958 132.059 175.343C132.298 174.729 132.715 174.199 133.256 173.82C133.796 173.442 134.437 173.232 135.097 173.217C135.756 173.203 136.405 173.383 136.962 173.737C137.518 174.091 137.957 174.602 138.222 175.205C138.578 176.014 138.597 176.931 138.276 177.755C137.955 178.579 137.319 179.242 136.509 179.598V179.598Z"
    stroke="#F8AC17" stroke-width="1.5" stroke-miterlimit="10" />
  <path
    d="M111.36 216.558C110.756 216.824 110.087 216.905 109.437 216.791C108.787 216.677 108.186 216.373 107.71 215.917C107.233 215.462 106.903 214.875 106.761 214.232C106.618 213.589 106.67 212.917 106.91 212.303C107.149 211.688 107.566 211.158 108.106 210.78C108.647 210.402 109.288 210.192 109.948 210.177C110.607 210.162 111.256 210.343 111.813 210.697C112.369 211.051 112.807 211.561 113.073 212.165C113.429 212.973 113.448 213.891 113.127 214.714C112.806 215.538 112.17 216.201 111.36 216.558Z"
    stroke="#F8AC17" stroke-width="1.5" stroke-miterlimit="10" />
  <path
    d="M157.162 234.822C156.558 235.088 155.889 235.169 155.239 235.055C154.589 234.941 153.988 234.637 153.512 234.182C153.036 233.726 152.705 233.14 152.563 232.496C152.42 231.853 152.472 231.182 152.712 230.567C152.951 229.953 153.368 229.423 153.909 229.044C154.449 228.666 155.09 228.456 155.75 228.441C156.41 228.427 157.059 228.608 157.615 228.961C158.171 229.315 158.61 229.826 158.875 230.429C159.231 231.238 159.251 232.155 158.929 232.979C158.608 233.803 157.972 234.466 157.162 234.822V234.822Z"
    stroke="#F8AC17" stroke-width="1.5" stroke-miterlimit="10" />
  <path
    d="M236.966 199.708C236.362 199.974 235.693 200.055 235.043 199.941C234.393 199.827 233.792 199.523 233.316 199.067C232.839 198.612 232.509 198.025 232.367 197.382C232.224 196.739 232.276 196.067 232.516 195.453C232.755 194.838 233.172 194.308 233.712 193.93C234.253 193.552 234.894 193.342 235.553 193.327C236.213 193.312 236.862 193.493 237.418 193.847C237.975 194.201 238.413 194.711 238.679 195.315C239.035 196.123 239.054 197.041 238.733 197.864C238.412 198.688 237.776 199.352 236.966 199.708V199.708Z"
    stroke="#F8AC17" stroke-width="1.5" stroke-miterlimit="10" />
  <path
    d="M256.079 152.88C255.475 153.146 254.806 153.227 254.156 153.113C253.506 152.999 252.905 152.695 252.429 152.239C251.952 151.784 251.622 151.197 251.48 150.554C251.337 149.911 251.389 149.239 251.629 148.625C251.868 148.01 252.285 147.48 252.826 147.102C253.366 146.724 254.007 146.514 254.667 146.499C255.326 146.484 255.975 146.665 256.532 147.019C257.088 147.373 257.527 147.883 257.792 148.487C258.148 149.295 258.167 150.213 257.846 151.037C257.525 151.86 256.889 152.524 256.079 152.88V152.88Z"
    stroke="#F8AC17" stroke-width="1.5" stroke-miterlimit="10" />
  <path
    d="M190.735 200.662C190.131 200.928 189.461 201.009 188.812 200.895C188.162 200.781 187.561 200.477 187.084 200.021C186.608 199.566 186.278 198.979 186.135 198.336C185.993 197.693 186.045 197.021 186.284 196.407C186.524 195.792 186.94 195.263 187.481 194.884C188.022 194.506 188.663 194.296 189.322 194.281C189.982 194.266 190.631 194.447 191.187 194.801C191.744 195.155 192.182 195.666 192.448 196.269C192.803 197.077 192.823 197.995 192.502 198.819C192.181 199.643 191.545 200.306 190.735 200.662V200.662Z"
    stroke="#F8AC17" stroke-width="1.5" stroke-miterlimit="10" />
  <path d="M144.18 95.4464L148.755 105.843" stroke="#F8AC17" stroke-width="1.5" stroke-miterlimit="10" />
  <path d="M125.893 104.94C125.893 104.94 127.122 113.212 129.033 116.642" stroke="#F8AC17" stroke-width="1.5"
    stroke-miterlimit="10" />
  <path d="M164.196 88.0866C164.196 88.0866 169.465 94.5809 170.702 98.3067" stroke="#F8AC17" stroke-width="1.5"
    stroke-miterlimit="10" />
  <path d="M166.338 255.447L192.506 243.932" stroke="#F8AC17" stroke-width="1.5" stroke-miterlimit="10" />
  <path
    d="M249.95 236.883L229.651 245.816C228.87 246.155 227.987 246.172 227.194 245.863C226.402 245.554 225.765 244.943 225.422 244.165L216.442 223.756C216.271 223.372 216.178 222.957 216.167 222.536C216.157 222.115 216.23 221.696 216.382 221.304L218.789 215.129C218.944 214.737 219.173 214.379 219.466 214.075C219.759 213.772 220.108 213.529 220.495 213.361L232.208 208.207C232.988 207.869 233.868 207.847 234.664 208.144L240.83 210.546C241.226 210.695 241.587 210.922 241.893 211.213C242.199 211.504 242.443 211.854 242.61 212.242L251.591 232.651C251.933 233.429 251.952 234.311 251.645 235.104C251.338 235.898 250.728 236.537 249.95 236.883Z"
    stroke="#F8AC17" stroke-width="1.5" stroke-miterlimit="10" />
  <path d="M219.997 231.836L246.165 220.322" stroke="#F8AC17" stroke-width="1.5" stroke-miterlimit="10" />
  <path d="M191.866 203.919L197.486 216.463" stroke="#F8AC17" stroke-width="1.5" stroke-miterlimit="10" />
  <path d="M116.941 181.646L137.617 228.634" stroke="#F8AC17" stroke-width="1.5" stroke-miterlimit="10" />
  <path d="M226.136 133.599L246.811 180.588" stroke="#F8AC17" stroke-width="1.5" stroke-miterlimit="10" />
  <path d="M93.7016 287.407L139.054 303.964" stroke="#F8AC17" stroke-width="1.5" stroke-miterlimit="10" />
  <path d="M319.848 187.901L301.415 232.523" stroke="#F8AC17" stroke-width="1.5" stroke-miterlimit="10" />
  <path d="M139.657 320.994C144.76 324.549 150.592 326.927 156.73 327.955" stroke="#F8AC17" stroke-width="1.5"
    stroke-miterlimit="10" />
  <path d="M313.66 244.431C312.834 250.592 310.651 256.495 307.27 261.716" stroke="#F8AC17" stroke-width="1.5"
    stroke-miterlimit="10" />
  <path
    d="M97.0838 108.331C99.1826 106.576 101.099 104.83 103.927 102.712L104.325 102.408L106.058 101.129L106.645 100.699L108.315 99.5055L109.04 99.0003L110.715 97.8478L111.519 97.2935L113.253 96.1438L114.098 95.5856L115.933 94.4056L116.801 93.8661C117.433 93.4542 118.088 93.0513 118.766 92.6573L119.616 92.1403L121.803 90.8483L122.542 90.4083L125.168 88.9377L125.601 88.7472C127.729 87.5815 129.921 86.4306 132.207 85.296C133.325 84.8039 134.413 84.2105 135.545 83.6838L136.279 83.361L139.057 82.1386L141.101 81.2391L142.629 80.5671L144.885 79.6602L146.196 79.0834L148.114 78.354L149.462 77.8612L151.946 76.983L153.293 76.5196L155.917 75.6657L157.272 75.2557L159.44 74.6029L160.806 74.2168C161.749 73.9453 162.702 73.6978 163.667 73.445L164.722 73.1671C165.729 72.9105 166.758 72.6725 167.787 72.4346L169.096 72.1455C169.91 71.9735 170.719 71.7895 171.538 71.6295L172.862 71.3765C173.944 71.1587 175.023 70.9702 176.115 70.7764L176.826 70.664C177.989 70.4678 179.174 70.2903 180.347 70.118L181.703 69.937C182.597 69.8159 183.508 69.7015 184.425 69.599L185.786 69.4301"
    stroke="#F8AC17" stroke-width="1.5" stroke-miterlimit="10" />
  <path
    d="M165.018 60.4982L162.097 61.1673L160.247 61.5946C159.289 61.8301 158.341 62.0896 157.375 62.3424L155.462 62.8547L152.794 63.6417C152.137 63.8449 151.457 64.0293 150.805 64.2444L148.449 65.0231C147.725 65.27 146.991 65.4929 146.284 65.7465L144.416 66.4254C140.936 67.6842 137.581 69.0314 134.37 70.4442L133.625 70.7723C132.723 71.1691 131.845 71.5554 130.955 71.947L129.668 72.5131L127.306 73.6675L125.889 74.3625C125.131 74.6959 124.452 75.1094 123.727 75.4855C123.234 75.7024 122.717 75.93 122.272 76.255C121.562 76.5672 120.918 76.9941 120.234 77.3664L118.825 78.144L116.869 79.277L115.543 80.0468L113.639 81.1999L112.438 81.9289L110.488 83.1737L109.511 83.7902L107.45 85.1413L106.774 85.5961L104.472 87.1822"
    stroke="#F8AC17" stroke-width="1.5" stroke-miterlimit="10" />
  <path
    d="M168.515 207.774C144.489 204.747 126.409 194.976 114.75 178.755C92.9395 148.401 101.329 105.288 101.421 104.846"
    stroke="#F8AC17" stroke-width="1.5" stroke-miterlimit="10" />
  <path
    d="M210.593 189.259C224.581 169.505 229.603 149.57 225.52 130.015C217.876 93.4271 180.411 70.4912 180.034 70.2556"
    stroke="#F8AC17" stroke-width="1.5" stroke-miterlimit="10" />
  <path
    d="M188.364 93.688L187.189 93.8895C160.736 98.9184 135.772 109.903 114.192 126.009L113.25 126.739L112.878 125.599C111.909 122.586 111.449 119.433 111.514 116.268L111.53 115.946L111.771 115.711C112.019 115.459 137.168 91.1233 181.173 85.1735L181.539 85.1268L181.828 85.3581C184.205 87.4479 186.219 89.9178 187.786 92.6671L188.364 93.688Z"
    stroke="#F8AC17" stroke-width="1.5" stroke-miterlimit="10" />
  <path
    d="M196.291 260.494L175.991 269.426C175.211 269.766 174.327 269.783 173.535 269.474C172.742 269.165 172.105 268.554 171.763 267.776L162.783 247.367C162.612 246.982 162.518 246.568 162.508 246.147C162.498 245.726 162.571 245.307 162.723 244.914L165.13 238.739C165.284 238.347 165.514 237.989 165.807 237.686C166.099 237.383 166.449 237.14 166.835 236.971L178.549 231.818C179.329 231.48 180.209 231.457 181.004 231.755L187.171 234.157C187.966 234.464 188.606 235.074 188.951 235.853L197.931 256.262C198.274 257.04 198.293 257.922 197.986 258.715C197.678 259.508 197.069 260.148 196.291 260.494Z"
    stroke="#F8AC17" stroke-width="1.5" stroke-miterlimit="10" />
  <path
    d="M167.686 352.854L119.172 242.597C118.599 241.295 118.567 239.818 119.084 238.491C119.602 237.164 120.625 236.097 121.93 235.523L158.007 219.648C159.309 219.094 160.777 219.074 162.092 219.591C163.408 220.109 164.466 221.124 165.038 222.415L166.813 226.449C167.207 227.344 167.94 228.045 168.852 228.399C169.765 228.753 170.781 228.73 171.677 228.336L222.414 206.011C223.31 205.616 224.013 204.883 224.369 203.971C224.724 203.06 224.702 202.045 224.309 201.15L222.534 197.117C221.961 195.814 221.929 194.337 222.447 193.011C222.964 191.684 223.987 190.616 225.292 190.042L262.981 173.459C264.285 172.885 265.764 172.851 267.092 173.366C268.419 173.881 269.487 174.902 270.06 176.205L318.564 286.438"
    stroke="#F8AC17" stroke-width="1.5" stroke-miterlimit="10" />
  <path
    d="M306.512 315.127L272.176 237.092C271.721 236.057 270.872 235.246 269.817 234.836C268.763 234.427 267.588 234.454 266.551 234.91L245.349 244.239C244.753 244.502 244.225 244.897 243.805 245.395C243.384 245.893 243.083 246.48 242.924 247.111L241.361 253.345C241.264 253.728 241.081 254.084 240.826 254.387C240.572 254.69 240.253 254.932 239.892 255.095L197.645 273.684C197.281 273.84 196.887 273.912 196.492 273.895C196.096 273.878 195.71 273.772 195.362 273.585L189.71 270.526C189.134 270.22 188.496 270.047 187.843 270.022C187.191 269.996 186.541 270.118 185.942 270.379L164.752 279.702C164.238 279.927 163.773 280.25 163.384 280.655C162.995 281.059 162.69 281.537 162.486 282.059C162.283 282.582 162.184 283.139 162.197 283.699C162.21 284.259 162.333 284.812 162.56 285.324L196.897 363.359"
    stroke="#F8AC17" stroke-width="1.5" stroke-miterlimit="10" />
  <path
    d="M294.803 330.467L271.343 277.151C270.493 275.219 269.464 274.869 266.959 274.037L242.822 265.441L242.542 265.392C241.762 265.376 240.987 265.531 240.273 265.846L204.424 281.62C203.706 281.937 203.065 282.405 202.544 282.992L192.555 306.646L192.034 308.007C191.305 309.905 191.082 310.475 191.816 312.144L215.276 365.46"
    stroke="#F8AC17" stroke-width="1.5" stroke-miterlimit="10" />
  <path
    d="M88.5335 167.062L93.8252 168.029C94.3425 168.131 94.8077 168.41 95.1415 168.817C95.4753 169.225 95.6567 169.736 95.6546 170.262C95.5909 176.022 95.5086 195.604 97.1301 205.781C97.1866 206.113 97.1578 206.453 97.0463 206.77C96.9347 207.087 96.7443 207.371 96.4928 207.595C96.3406 207.683 96.1793 207.754 96.0117 207.807C95.5581 208 95.0469 208.009 94.5873 207.832L89.623 207.021"
    stroke="#F8AC17" stroke-width="1.5" stroke-miterlimit="10" />
  <path
    d="M234.672 102.76L231.822 107.309C231.542 107.758 231.429 108.29 231.502 108.813C231.575 109.337 231.829 109.817 232.22 110.172C236.51 114.016 251.003 127.185 257.423 135.251C257.63 135.515 257.9 135.723 258.209 135.855C258.518 135.987 258.856 136.039 259.19 136.006C259.362 135.952 259.527 135.879 259.684 135.789C260.131 135.583 260.482 135.213 260.664 134.756L263.408 130.554"
    stroke="#F8AC17" stroke-width="1.5" stroke-miterlimit="10" />
  <path
    d="M186.366 191.809C180.22 194.513 173.411 195.337 166.801 194.177C160.191 193.017 154.076 189.924 149.23 185.291C144.384 180.657 141.024 174.691 139.575 168.145C138.126 161.6 138.654 154.77 141.09 148.519C143.527 142.269 147.764 136.878 153.266 133.029C158.767 129.179 165.285 127.044 171.997 126.894C178.708 126.743 185.311 128.584 190.97 132.183C196.629 135.782 201.091 140.978 203.79 147.114C207.396 155.343 207.587 164.668 204.321 173.046C201.054 181.424 194.598 188.171 186.366 191.809Z"
    stroke="#F8AC17" stroke-width="1.5" stroke-miterlimit="10" />
  <path
    d="M191.908 203.915C183.221 207.737 173.599 208.902 164.257 207.262C154.914 205.622 146.272 201.252 139.423 194.703C132.574 188.154 127.825 179.721 125.778 170.471C123.73 161.221 124.475 151.568 127.92 142.734C131.364 133.899 137.352 126.28 145.127 120.84C152.902 115.4 162.114 112.383 171.6 112.17C181.085 111.957 190.417 114.559 198.415 119.645C206.413 124.732 212.719 132.075 216.534 140.747C221.636 152.376 221.909 165.559 217.292 177.401C212.675 189.243 203.546 198.779 191.908 203.915V203.915Z"
    stroke="#F8AC17" stroke-width="1.5" stroke-miterlimit="10" />
  <path
    d="M157.899 126.037C157.295 126.303 156.625 126.384 155.976 126.27C155.326 126.156 154.725 125.852 154.249 125.396C153.772 124.941 153.442 124.354 153.299 123.711C153.157 123.067 153.209 122.396 153.448 121.782C153.688 121.167 154.104 120.637 154.645 120.259C155.186 119.881 155.827 119.671 156.486 119.656C157.146 119.641 157.795 119.822 158.351 120.176C158.908 120.53 159.346 121.04 159.612 121.643C159.967 122.452 159.987 123.369 159.666 124.193C159.345 125.017 158.709 125.68 157.899 126.037V126.037Z"
    stroke="#F8AC17" stroke-width="1.5" stroke-miterlimit="10" />
  <path
    d="M211.226 146.722C210.622 146.988 209.952 147.069 209.303 146.955C208.653 146.841 208.052 146.537 207.575 146.082C207.099 145.626 206.769 145.04 206.626 144.396C206.484 143.753 206.536 143.081 206.775 142.467C207.015 141.853 207.431 141.323 207.972 140.944C208.513 140.566 209.154 140.356 209.813 140.341C210.473 140.326 211.122 140.507 211.678 140.861C212.235 141.215 212.673 141.726 212.939 142.329C213.295 143.138 213.314 144.055 212.993 144.879C212.671 145.703 212.036 146.366 211.226 146.722V146.722Z"
    stroke="#F8AC17" stroke-width="1.5" stroke-miterlimit="10" />
  <path
    d="M136.509 179.598C135.905 179.864 135.236 179.945 134.586 179.831C133.936 179.717 133.335 179.413 132.859 178.958C132.382 178.502 132.052 177.916 131.91 177.272C131.767 176.629 131.819 175.958 132.059 175.343C132.298 174.729 132.715 174.199 133.256 173.82C133.796 173.442 134.437 173.232 135.097 173.217C135.756 173.203 136.405 173.383 136.962 173.737C137.518 174.091 137.957 174.602 138.222 175.205C138.578 176.014 138.597 176.931 138.276 177.755C137.955 178.579 137.319 179.242 136.509 179.598V179.598Z"
    stroke="#F8AC17" stroke-width="1.5" stroke-miterlimit="10" />
  <path
    d="M111.36 216.558C110.756 216.824 110.087 216.905 109.437 216.791C108.787 216.677 108.186 216.373 107.71 215.917C107.233 215.462 106.903 214.875 106.761 214.232C106.618 213.589 106.67 212.917 106.91 212.303C107.149 211.688 107.566 211.158 108.106 210.78C108.647 210.402 109.288 210.192 109.948 210.177C110.607 210.162 111.256 210.343 111.813 210.697C112.369 211.051 112.807 211.561 113.073 212.165C113.429 212.973 113.448 213.891 113.127 214.714C112.806 215.538 112.17 216.201 111.36 216.558Z"
    stroke="#F8AC17" stroke-width="1.5" stroke-miterlimit="10" />
  <path
    d="M157.162 234.822C156.558 235.088 155.889 235.169 155.239 235.055C154.589 234.941 153.988 234.637 153.512 234.182C153.036 233.726 152.705 233.14 152.563 232.496C152.42 231.853 152.472 231.182 152.712 230.567C152.951 229.953 153.368 229.423 153.909 229.044C154.449 228.666 155.09 228.456 155.75 228.441C156.41 228.427 157.059 228.608 157.615 228.961C158.171 229.315 158.61 229.826 158.875 230.429C159.231 231.238 159.251 232.155 158.929 232.979C158.608 233.803 157.972 234.466 157.162 234.822V234.822Z"
    stroke="#F8AC17" stroke-width="1.5" stroke-miterlimit="10" />
  <path
    d="M236.966 199.708C236.362 199.974 235.693 200.055 235.043 199.941C234.393 199.827 233.792 199.523 233.316 199.067C232.839 198.612 232.509 198.025 232.367 197.382C232.224 196.739 232.276 196.067 232.516 195.453C232.755 194.838 233.172 194.308 233.712 193.93C234.253 193.552 234.894 193.342 235.553 193.327C236.213 193.312 236.862 193.493 237.418 193.847C237.975 194.201 238.413 194.711 238.679 195.315C239.035 196.123 239.054 197.041 238.733 197.864C238.412 198.688 237.776 199.352 236.966 199.708V199.708Z"
    stroke="#F8AC17" stroke-width="1.5" stroke-miterlimit="10" />
  <path
    d="M256.079 152.88C255.475 153.146 254.806 153.227 254.156 153.113C253.506 152.999 252.905 152.695 252.429 152.239C251.952 151.784 251.622 151.197 251.48 150.554C251.337 149.911 251.389 149.239 251.629 148.625C251.868 148.01 252.285 147.48 252.826 147.102C253.366 146.724 254.007 146.514 254.667 146.499C255.326 146.484 255.975 146.665 256.532 147.019C257.088 147.373 257.527 147.883 257.792 148.487C258.148 149.295 258.167 150.213 257.846 151.037C257.525 151.86 256.889 152.524 256.079 152.88V152.88Z"
    stroke="#F8AC17" stroke-width="1.5" stroke-miterlimit="10" />
  <path
    d="M190.735 200.662C190.131 200.928 189.461 201.009 188.812 200.895C188.162 200.781 187.561 200.477 187.084 200.021C186.608 199.566 186.278 198.979 186.135 198.336C185.993 197.693 186.045 197.021 186.284 196.407C186.524 195.792 186.94 195.263 187.481 194.884C188.022 194.506 188.663 194.296 189.322 194.281C189.982 194.266 190.631 194.447 191.187 194.801C191.744 195.155 192.182 195.666 192.448 196.269C192.803 197.077 192.823 197.995 192.502 198.819C192.181 199.643 191.545 200.306 190.735 200.662V200.662Z"
    stroke="#F8AC17" stroke-width="1.5" stroke-miterlimit="10" />
  <path d="M144.18 95.4464L148.755 105.843" stroke="#F8AC17" stroke-width="1.5" stroke-miterlimit="10" />
  <path d="M125.893 104.94C125.893 104.94 127.122 113.212 129.033 116.642" stroke="#F8AC17" stroke-width="1.5"
    stroke-miterlimit="10" />
  <path d="M164.196 88.0866C164.196 88.0866 169.465 94.5809 170.702 98.3067" stroke="#F8AC17" stroke-width="1.5"
    stroke-miterlimit="10" />
  <path d="M166.338 255.447L192.506 243.932" stroke="#F8AC17" stroke-width="1.5" stroke-miterlimit="10" />
  <path
    d="M249.95 236.883L229.651 245.816C228.87 246.155 227.987 246.172 227.194 245.863C226.402 245.554 225.765 244.943 225.422 244.165L216.442 223.756C216.271 223.372 216.178 222.957 216.167 222.536C216.157 222.115 216.23 221.696 216.382 221.304L218.789 215.129C218.944 214.737 219.173 214.379 219.466 214.075C219.759 213.772 220.108 213.529 220.495 213.361L232.208 208.207C232.988 207.869 233.868 207.847 234.664 208.144L240.83 210.546C241.226 210.695 241.587 210.922 241.893 211.213C242.199 211.504 242.443 211.854 242.61 212.242L251.591 232.651C251.933 233.429 251.952 234.311 251.645 235.104C251.338 235.898 250.728 236.537 249.95 236.883Z"
    stroke="#F8AC17" stroke-width="1.5" stroke-miterlimit="10" />
  <path d="M219.997 231.836L246.165 220.322" stroke="#F8AC17" stroke-width="1.5" stroke-miterlimit="10" />
  <path d="M191.866 203.919L197.486 216.463" stroke="#F8AC17" stroke-width="1.5" stroke-miterlimit="10" />
  <path d="M116.941 181.646L137.617 228.634" stroke="#F8AC17" stroke-width="1.5" stroke-miterlimit="10" />
  <path d="M226.136 133.599L246.811 180.588" stroke="#F8AC17" stroke-width="1.5" stroke-miterlimit="10" />
  <path d="M320.499 250.808L320.915 251.198L321.701 251.941L321.19 251.464L320.499 250.808Z" stroke="#F8AC17"
    stroke-width="1.5" stroke-miterlimit="10" />
  <path
    d="M102.467 227.664C101.63 227.739 100.837 228.079 100.207 228.635C99.5757 229.191 99.1392 229.934 98.9609 230.755C98.2742 233.794 97.3258 238.424 96.4191 244.225L95.8904 247.754C95.6909 249.16 95.5004 250.62 95.3259 252.115C91.0424 287.073 91.0972 353.094 139.519 402.562C140.079 403.157 140.81 403.563 141.611 403.724C142.412 403.885 143.244 403.793 143.991 403.461L144.244 403.349C145.015 402.959 145.636 402.327 146.013 401.551C146.389 400.774 146.5 399.896 146.328 399.05C142.298 376.977 140.065 354.611 139.653 332.173L139.624 329.922L139.624 328.976C139.604 325.245 139.655 321.153 139.782 316.483L139.89 313.139C139.925 311.849 139.965 310.57 140.036 309.263C140.127 307.444 139.791 305.629 139.054 303.964L106.524 230.035C106.194 229.256 105.62 228.605 104.889 228.178C104.159 227.751 103.309 227.571 102.467 227.664V227.664Z"
    stroke="#F8AC17" stroke-width="1.5" stroke-miterlimit="10" />
  <path
    d="M292.706 165.266C291.616 164.484 290.207 163.499 289.183 162.804L286.224 160.81C281.334 157.559 277.268 155.135 274.575 153.583C273.843 153.166 272.998 152.991 272.16 153.082C271.321 153.173 270.533 153.526 269.907 154.091C269.28 154.656 268.848 155.403 268.671 156.226C268.495 157.05 268.583 157.908 268.922 158.678L301.452 232.607C302.184 234.276 303.299 235.749 304.707 236.907C305.719 237.737 306.694 238.583 307.664 239.418L310.202 241.597C313.736 244.67 316.782 247.385 319.513 249.938L320.21 250.577L320.936 251.246L320.52 250.856L321.211 251.512L321.722 251.989L321.947 252.206C338.162 267.6 353.098 284.285 366.607 302.097C367.118 302.795 367.846 303.304 368.676 303.547C369.507 303.791 370.396 303.753 371.204 303.442L371.444 303.336C372.194 303.009 372.824 302.458 373.247 301.759C373.669 301.059 373.864 300.246 373.803 299.432C370.001 230.374 321.362 185.73 292.706 165.266Z"
    stroke="#F8AC17" stroke-width="1.5" stroke-miterlimit="10" />
  <path d="M320.941 251.258L321.962 252.242L321.738 252.025L320.941 251.258Z" stroke="#F8AC17" stroke-width="1.5"
    stroke-miterlimit="10" />
  <path
    d="M289.183 162.804C259.239 117.586 217.706 85.635 190.221 71.6484L187.109 70.1521C180.304 66.8555 173.462 63.8332 166.761 61.1644L163.888 60.0499C159.244 58.2385 154.64 56.5819 150.226 55.099C142.623 52.7013 134.402 53.1512 127.099 56.3646C119.796 59.578 113.91 65.3351 110.541 72.5609C108.622 76.8445 106.748 81.3946 104.967 85.9902L103.793 88.9999C101.315 95.5357 98.9831 102.437 96.8546 109.507L95.9492 112.57C87.5456 142.405 82.864 195.02 95.9489 247.757"
    stroke="#F8AC17" stroke-width="1.5" stroke-miterlimit="10" />
  <path
    d="M139.637 332.137C139.968 332.465 140.286 332.797 140.634 333.131C146.278 338.736 152.477 343.752 159.136 348.104C166.504 352.914 174.405 356.857 182.68 359.855C186.49 361.209 190.38 362.325 194.329 363.199C216.1 367.72 238.749 365.333 259.113 356.373C279.477 347.413 296.538 332.326 307.913 313.221C309.929 309.719 311.73 306.099 313.305 302.379C316.171 295.524 318.361 288.408 319.846 281.131C321.655 271.975 322.366 262.638 321.962 253.317C321.939 252.94 321.917 252.563 321.883 252.191"
    stroke="#F8AC17" stroke-width="1.5" stroke-miterlimit="10" />
  <path d="M93.7016 287.407L139.054 303.964" stroke="#F8AC17" stroke-width="1.5" stroke-miterlimit="10" />
  <path d="M319.848 187.901L301.415 232.523" stroke="#F8AC17" stroke-width="1.5" stroke-miterlimit="10" />
  <path d="M139.657 320.994C144.76 324.549 150.592 326.927 156.73 327.955" stroke="#F8AC17" stroke-width="1.5"
    stroke-miterlimit="10" />
  <path d="M313.66 244.431C312.834 250.592 310.651 256.495 307.27 261.716" stroke="#F8AC17" stroke-width="1.5"
    stroke-miterlimit="10" />
</svg>