<svg id="planet-small" width="99" height="110" viewBox="0 0 99 110" fill="none" xmlns="http://www.w3.org/2000/svg">
	<g clip-path="url(#clip0_45_177)">
		<path
			d="M5.77395 27.3471C3.24677 31.348 5.52322 38.0077 12.2162 46.0361C13.6417 47.7627 15.2584 49.5057 16.9999 51.2608C16.4433 55.6521 16.7732 60.114 17.9701 64.3812C19.1671 68.6485 21.2065 72.6339 23.9673 76.1005C29.1189 82.5585 36.4801 86.8665 44.6121 88.1823C52.744 89.4981 61.0621 87.7272 67.9404 83.2158C69.7867 83.8436 71.604 84.4122 73.3262 84.862C83.4284 87.4628 90.3777 86.6852 92.9013 82.6768C95.3211 78.8299 93.3221 72.567 87.2704 64.9681C87.011 64.6451 86.7442 64.3073 86.4664 63.9842C85.2711 62.5398 83.9179 61.0719 82.4837 59.6069C83.0198 55.2406 82.6784 50.8077 81.4798 46.5695C80.2812 42.3313 78.2495 38.3735 75.5045 34.9294C70.4471 28.592 63.2574 24.3225 55.2931 22.9272C47.3289 21.5319 39.1412 23.1073 32.2764 27.3559C29.8796 26.5021 27.5448 25.7559 25.3232 25.1839C15.2504 22.5686 8.30112 23.3462 5.77395 27.3471ZM25.0747 75.2067C19.9816 68.812 17.5527 60.6948 18.2988 52.5624C18.3532 51.9655 18.4224 51.3615 18.5135 50.765C19.6625 42.8484 23.7692 35.6759 30.0025 30.699C30.8035 30.0569 31.6374 29.4631 32.4821 28.9098C41.3193 32.2616 49.7834 36.5356 57.7346 41.6612C66.1457 46.9086 73.9449 53.0861 80.985 60.0771C79.8757 68.0542 75.7586 75.2906 69.4805 80.2978C68.9046 80.7648 68.3106 81.1948 67.7092 81.61C67.1079 82.0252 66.6948 82.2835 66.1748 82.6035C59.6148 86.5785 51.8285 88.0207 44.2674 86.6611C36.7063 85.3016 29.8862 81.2331 25.0783 75.2141L25.0747 75.2067ZM85.3663 64.8744C91.5034 72.2934 93.8226 78.4815 91.6918 81.8738C89.5611 85.2661 82.9951 85.8368 73.6898 83.4419C72.2944 83.0797 70.8552 82.6471 69.4015 82.1665C69.7299 81.9222 70.0731 81.6708 70.3869 81.4154C76.6563 76.414 80.8772 69.2796 82.2546 61.3563C83.3554 62.5529 84.416 63.7234 85.3736 64.8893L85.3663 64.8744ZM74.3973 35.7863C79.4384 42.1182 81.866 50.1424 81.178 58.1984C74.2616 51.4801 66.6538 45.5171 58.4834 40.4104C50.7672 35.4438 42.5782 31.2609 34.0385 27.924C40.5836 24.2008 48.2475 22.9479 55.6505 24.3907C63.0535 25.8335 69.7092 29.8772 74.4193 35.7939L74.3973 35.7863ZM30.7716 28.3164C30.2071 28.7135 29.6425 29.1289 29.0962 29.563C22.8712 34.5343 18.6672 41.6104 17.266 49.4749C15.8503 48.0102 14.5007 46.5497 13.2943 45.1199L12.5122 44.162C6.95391 37.1756 4.91975 31.3438 6.9688 28.1205C9.09958 24.7282 15.6655 24.1575 24.9708 26.5524C26.851 27.0441 28.7967 27.6506 30.7789 28.3312L30.7716 28.3164Z" />
	</g>
	<defs>
		<clipPath id="clip0_45_177">
			<rect width="90" height="66" fill="white" transform="translate(39.7079 109.886) rotate(-116.18)" />
		</clipPath>
	</defs>
</svg>