<svg width="31" height="45" viewBox="0 0 31 45" fill="none" xmlns="http://www.w3.org/2000/svg">
<path d="M30.1952 1.51715C30.3442 1.28467 30.2766 0.9754 30.0441 0.826375C29.8116 0.67735 29.5023 0.745003 29.3533 0.977481L30.1952 1.51715ZM2.47994 43.1713C2.53895 43.4411 2.80548 43.6119 3.07524 43.5529L7.47129 42.5913C7.74105 42.5323 7.9119 42.2658 7.85289 41.996C7.79388 41.7262 7.52736 41.5554 7.25759 41.6144L3.34999 42.4692L2.49521 38.5616C2.4362 38.2918 2.16967 38.121 1.89991 38.18C1.63014 38.239 1.4593 38.5055 1.51831 38.7753L2.47994 43.1713ZM29.0853 1.39565C28.9362 1.62813 29.0039 1.9374 29.2364 2.08643C29.4688 2.23545 29.7781 2.1678 29.9271 1.93532L29.0853 1.39565ZM29.391 2.77166C29.54 2.53918 29.4724 2.22991 29.2399 2.08089C29.0074 1.93186 28.6982 1.99952 28.5491 2.232L29.391 2.77166ZM27.4769 3.90468C27.3279 4.13716 27.3955 4.44643 27.628 4.59545C27.8605 4.74448 28.1698 4.67683 28.3188 4.44435L27.4769 3.90468ZM25.1021 9.46241C25.2511 9.22993 25.1835 8.92066 24.951 8.77163C24.7185 8.62261 24.4092 8.69026 24.2602 8.92274L25.1021 9.46241ZM23.7241 9.75908C23.5751 9.99156 23.6427 10.3008 23.8752 10.4499C24.1077 10.5989 24.4169 10.5312 24.566 10.2988L23.7241 9.75908ZM24.0299 11.1351C24.1789 10.9026 24.1112 10.5933 23.8787 10.4443C23.6463 10.2953 23.337 10.3629 23.188 10.5954L24.0299 11.1351ZM22.1157 12.2681C21.9667 12.5006 22.0344 12.8099 22.2668 12.9589C22.4993 13.1079 22.8086 13.0403 22.9576 12.8078L22.1157 12.2681ZM19.7409 17.8258C19.8899 17.5934 19.8223 17.2841 19.5898 17.1351C19.3573 16.986 19.0481 17.0537 18.899 17.2862L19.7409 17.8258ZM18.3629 18.1225C18.2139 18.355 18.2815 18.6643 18.514 18.8133C18.7465 18.9623 19.0558 18.8947 19.2048 18.6622L18.3629 18.1225ZM18.6687 19.4985C18.8177 19.266 18.75 18.9568 18.5176 18.8078C18.2851 18.6587 17.9758 18.7264 17.8268 18.9589L18.6687 19.4985ZM16.7546 20.6315C16.6055 20.864 16.6732 21.1733 16.9057 21.3223C17.1381 21.4713 17.4474 21.4037 17.5964 21.1712L16.7546 20.6315ZM14.3797 26.1893C14.5288 25.9568 14.4611 25.6475 14.2286 25.4985C13.9962 25.3495 13.6869 25.4171 13.5379 25.6496L14.3797 26.1893ZM13.0017 26.4859C12.8527 26.7184 12.9204 27.0277 13.1528 27.1767C13.3853 27.3257 13.6946 27.2581 13.8436 27.0256L13.0017 26.4859ZM13.3075 27.862C13.4565 27.6295 13.3889 27.3202 13.1564 27.1712C12.9239 27.0222 12.6146 27.0898 12.4656 27.3223L13.3075 27.862ZM11.3934 28.995C11.2444 29.2275 11.312 29.5367 11.5445 29.6857C11.777 29.8348 12.0862 29.7671 12.2353 29.5346L11.3934 28.995ZM9.01857 34.5527C9.16759 34.3202 9.09994 34.0109 8.86746 33.8619C8.63498 33.7129 8.32571 33.7806 8.17669 34.013L9.01857 34.5527ZM7.64057 34.8494C7.49155 35.0819 7.5592 35.3911 7.79168 35.5401C8.02415 35.6892 8.33342 35.6215 8.48245 35.389L7.64057 34.8494ZM7.94633 36.2254C8.09536 35.9929 8.0277 35.6836 7.79523 35.5346C7.56275 35.3856 7.25348 35.4532 7.10445 35.6857L7.94633 36.2254ZM6.03222 37.3584C5.88319 37.5909 5.95085 37.9001 6.18333 38.0492C6.4158 38.1982 6.72507 38.1305 6.8741 37.8981L6.03222 37.3584ZM3.65739 42.9161C3.80642 42.6836 3.73877 42.3744 3.50629 42.2254C3.27381 42.0763 2.96454 42.144 2.81551 42.3765L3.65739 42.9161ZM29.3533 0.977481L29.0853 1.39565L29.9271 1.93532L30.1952 1.51715L29.3533 0.977481ZM28.5491 2.232L27.4769 3.90468L28.3188 4.44435L29.391 2.77166L28.5491 2.232ZM24.2602 8.92274L23.7241 9.75908L24.566 10.2988L25.1021 9.46241L24.2602 8.92274ZM23.188 10.5954L22.1157 12.2681L22.9576 12.8078L24.0299 11.1351L23.188 10.5954ZM18.899 17.2862L18.3629 18.1225L19.2048 18.6622L19.7409 17.8258L18.899 17.2862ZM17.8268 18.9589L16.7546 20.6315L17.5964 21.1712L18.6687 19.4985L17.8268 18.9589ZM13.5379 25.6496L13.0017 26.4859L13.8436 27.0256L14.3797 26.1893L13.5379 25.6496ZM12.4656 27.3223L11.3934 28.995L12.2353 29.5346L13.3075 27.862L12.4656 27.3223ZM8.17669 34.013L7.64057 34.8494L8.48245 35.389L9.01857 34.5527L8.17669 34.013ZM7.10445 35.6857L6.03222 37.3584L6.8741 37.8981L7.94633 36.2254L7.10445 35.6857ZM2.81551 42.3765L2.54745 42.7946L3.38933 43.3343L3.65739 42.9161L2.81551 42.3765ZM30.6161 1.78698C30.9142 1.32202 30.7789 0.703485 30.3139 0.405435C29.849 0.107386 29.2304 0.242691 28.9324 0.707648L30.6161 1.78698ZM1.99149 43.2782C2.10951 43.8177 2.64256 44.1594 3.18209 44.0414L11.9742 42.1181C12.5137 42.0001 12.8554 41.467 12.7374 40.9275C12.6194 40.388 12.0863 40.0463 11.5468 40.1643L3.7316 41.8739L2.02202 34.0587C1.904 33.5191 1.37095 33.1774 0.831423 33.2955C0.291895 33.4135 -0.0498016 33.9465 0.0682191 34.4861L1.99149 43.2782ZM28.6643 1.12582C28.3663 1.59078 28.5016 2.20932 28.9665 2.50737C29.4315 2.80541 30.05 2.67011 30.3481 2.20515L28.6643 1.12582ZM29.812 3.0415C30.11 2.57654 29.9747 1.958 29.5098 1.65995C29.0448 1.3619 28.4263 1.49721 28.1282 1.96216L29.812 3.0415ZM27.056 3.63485C26.7579 4.09981 26.8932 4.71835 27.3582 5.01639C27.8231 5.31444 28.4417 5.17914 28.7397 4.71418L27.056 3.63485ZM25.523 9.73224C25.8211 9.26728 25.6858 8.64874 25.2208 8.3507C24.7559 8.05265 24.1373 8.18795 23.8393 8.65291L25.523 9.73224ZM23.3031 9.48925C23.0051 9.95421 23.1404 10.5727 23.6054 10.8708C24.0703 11.1688 24.6889 11.0335 24.9869 10.5686L23.3031 9.48925ZM24.4508 11.4049C24.7488 10.94 24.6135 10.3214 24.1486 10.0234C23.6836 9.72533 23.0651 9.86064 22.767 10.3256L24.4508 11.4049ZM21.6948 11.9983C21.3967 12.4632 21.5321 13.0818 21.997 13.3798C22.462 13.6779 23.0805 13.5426 23.3786 13.0776L21.6948 11.9983ZM20.1619 18.0957C20.4599 17.6307 20.3246 17.0122 19.8596 16.7141C19.3947 16.4161 18.7761 16.5514 18.4781 17.0163L20.1619 18.0957ZM17.942 17.8527C17.6439 18.3176 17.7792 18.9362 18.2442 19.2342C18.7091 19.5323 19.3277 19.397 19.6257 18.932L17.942 17.8527ZM19.0896 19.7684C19.3877 19.3034 19.2524 18.6849 18.7874 18.3868C18.3224 18.0888 17.7039 18.2241 17.4059 18.689L19.0896 19.7684ZM16.3336 20.3617C16.0356 20.8267 16.1709 21.4452 16.6358 21.7433C17.1008 22.0413 17.7193 21.906 18.0174 21.441L16.3336 20.3617ZM14.8007 26.4591C15.0987 25.9941 14.9634 25.3756 14.4985 25.0776C14.0335 24.7795 13.415 24.9148 13.1169 25.3798L14.8007 26.4591ZM12.5808 26.2161C12.2828 26.6811 12.4181 27.2996 12.883 27.5977C13.348 27.8957 13.9665 27.7604 14.2646 27.2954L12.5808 26.2161ZM13.7284 28.1318C14.0265 27.6668 13.8912 27.0483 13.4262 26.7502C12.9613 26.4522 12.3427 26.5875 12.0447 27.0525L13.7284 28.1318ZM10.9725 28.7251C10.6744 29.1901 10.8097 29.8086 11.2747 30.1067C11.7396 30.4047 12.3582 30.2694 12.6562 29.8045L10.9725 28.7251ZM9.43951 34.8225C9.73756 34.3576 9.60225 33.739 9.13729 33.441C8.67234 33.1429 8.0538 33.2782 7.75575 33.7432L9.43951 34.8225ZM7.21963 34.5795C6.92158 35.0445 7.05689 35.663 7.52184 35.9611C7.9868 36.2591 8.60534 36.1238 8.90339 35.6589L7.21963 34.5795ZM8.36727 36.4952C8.66532 36.0303 8.53002 35.4117 8.06506 35.1137C7.6001 34.8156 6.98156 34.9509 6.68351 35.4159L8.36727 36.4952ZM5.61128 37.0886C5.31323 37.5535 5.44854 38.1721 5.91349 38.4701C6.37845 38.7682 6.99699 38.6329 7.29504 38.1679L5.61128 37.0886ZM4.07833 43.186C4.37638 42.721 4.24108 42.1025 3.77612 41.8044C3.31116 41.5064 2.69262 41.6417 2.39458 42.1066L4.07833 43.186ZM28.9324 0.707648L28.6643 1.12582L30.3481 2.20515L30.6161 1.78698L28.9324 0.707648ZM28.1282 1.96216L27.056 3.63485L28.7397 4.71418L29.812 3.0415L28.1282 1.96216ZM23.8393 8.65291L23.3031 9.48925L24.9869 10.5686L25.523 9.73224L23.8393 8.65291ZM22.767 10.3256L21.6948 11.9983L23.3786 13.0776L24.4508 11.4049L22.767 10.3256ZM18.4781 17.0163L17.942 17.8527L19.6257 18.932L20.1619 18.0957L18.4781 17.0163ZM17.4059 18.689L16.3336 20.3617L18.0174 21.441L19.0896 19.7684L17.4059 18.689ZM13.1169 25.3798L12.5808 26.2161L14.2646 27.2954L14.8007 26.4591L13.1169 25.3798ZM12.0447 27.0525L10.9725 28.7251L12.6562 29.8045L13.7284 28.1318L12.0447 27.0525ZM7.75575 33.7432L7.21963 34.5795L8.90339 35.6589L9.43951 34.8225L7.75575 33.7432ZM6.68351 35.4159L5.61128 37.0886L7.29504 38.1679L8.36727 36.4952L6.68351 35.4159ZM2.39458 42.1066L2.12651 42.5248L3.81027 43.6041L4.07833 43.186L2.39458 42.1066Z" fill="white"/>
</svg>
