<svg width="94" height="71" viewBox="0 0 94 71" fill="none" xmlns="http://www.w3.org/2000/svg">
<g clip-path="url(#clip0_50_122)">
<path d="M1.27226 60.0028C3.53025 64.1616 10.4537 65.4261 20.7279 63.5043C22.9307 63.1031 25.2411 62.5431 27.6231 61.88C31.1838 64.5096 35.2389 66.4 39.5474 67.4386C43.8559 68.4772 48.3297 68.643 52.703 67.9259C60.8541 66.5827 68.2075 62.2614 73.3258 55.8067C78.4442 49.3521 80.9595 41.228 80.3801 33.0227C81.8294 31.7178 83.2128 30.4094 84.4461 29.1259C91.6477 21.579 94.3617 15.1345 92.0955 10.9753C89.9194 6.98539 83.4777 5.67251 73.8915 7.24424C73.4829 7.31301 73.0579 7.38092 72.6402 7.46566C70.7961 7.80363 68.8544 8.26803 66.8758 8.8045C63.3268 6.20506 59.2914 4.33885 55.0074 3.31586C50.7234 2.29288 46.2775 2.13383 41.9316 2.84806C33.9317 4.168 26.6957 8.35839 21.5898 14.6279C16.4839 20.8974 13.8617 28.8121 14.2183 36.8774C12.3031 38.5524 10.512 40.2258 8.92813 41.8854C1.72824 49.3995 -0.985734 55.8441 1.27226 60.0028ZM52.4635 66.5231C44.3962 67.8462 36.1263 66.0032 29.3931 61.3818C28.8988 61.043 28.4053 60.6878 27.9292 60.317C21.5811 55.4494 17.3263 48.3638 16.0258 40.4941C15.8565 39.4815 15.7453 38.4639 15.6749 37.4566C22.9143 31.3804 30.7765 26.08 39.1316 21.643C47.8174 16.864 57.0162 13.0732 66.5544 10.3421C72.9747 15.2045 77.2803 22.3304 78.5854 30.254C78.7118 30.9846 78.7971 31.713 78.8658 32.4405C78.9346 33.168 78.9583 33.6546 78.9838 34.2646C79.2504 41.9304 76.7078 49.4298 71.83 55.3649C66.9522 61.3001 60.072 65.266 52.4718 66.5235L52.4635 66.5231ZM72.8801 8.86031C82.351 7.12616 88.8839 8.1231 90.8042 11.6388C92.7245 15.1545 90.0172 21.1634 83.3843 28.1153C82.3869 29.1564 81.3068 30.2012 80.1776 31.2352C80.1248 30.8294 80.0729 30.4071 80.0032 30.0086C78.699 22.0954 74.5332 14.9287 68.2906 9.85853C69.8724 9.48194 71.4116 9.12776 72.8966 8.86118L72.8801 8.86031ZM42.1389 4.23275C50.126 2.92442 58.3142 4.72303 65.009 9.25642C55.7691 12.0128 46.851 15.7413 38.4055 20.3788C30.304 24.6884 22.6556 29.7931 15.5743 35.6169C15.5202 28.0873 18.1682 20.787 23.0415 15.0305C27.9147 9.27397 34.6932 5.43943 42.1563 4.21723L42.1389 4.23275ZM14.3219 38.6597C14.3928 39.3462 14.4798 40.0418 14.592 40.7305C15.8916 48.5902 20.0147 55.7137 26.1944 60.7759C24.2249 61.2964 22.2914 61.7613 20.4546 62.1161L19.2368 62.331C10.426 63.7712 4.34337 62.6995 2.53056 59.3376C0.61024 55.8219 3.31759 49.813 9.9505 42.861C11.2975 41.4602 12.7767 40.0582 14.3384 38.6606L14.3219 38.6597Z" fill="#FFB800"/>
</g>
<defs>
<clipPath id="clip0_50_122">
<rect width="90" height="66" fill="white" transform="translate(89.8732 70.6824) rotate(-176.958)"/>
</clipPath>
</defs>
</svg>
