<svg width="354" height="271" viewBox="0 0 354 271" fill="none" xmlns="http://www.w3.org/2000/svg">
<path d="M43.9603 139L42 141.029C42.896 162.072 48.7169 182.615 58.9975 201.015C69.2782 219.415 83.7335 235.163 101.208 247L104 246.431C86.0605 234.661 71.2351 218.749 60.7826 200.046C50.3301 181.343 44.5593 160.402 43.9603 139V139Z" fill="#FFB800"/>
<path d="M44.0204 134.963C44.0204 134.963 44.0204 134.84 44.0204 134.778C44.0063 110.954 50.4323 87.5658 62.6239 67.0684C74.8155 46.571 92.323 29.7205 113.308 18.286C134.294 6.8514 157.983 1.25453 181.889 2.08288C205.796 2.91124 229.037 10.1343 249.174 22.9937L252 22.4258C231.615 8.96928 207.947 1.2688 183.517 0.143801C159.086 -0.981202 134.807 4.51136 113.262 16.037C91.7162 27.5627 73.7114 44.6903 61.163 65.5972C48.6146 86.504 41.992 110.408 42 134.766C42 135.506 42 136.259 42 137L44.0204 134.963Z" fill="#FFB800"/>
<path d="M309.959 136.094C309.773 159.888 303.3 183.202 291.206 203.639C279.112 224.075 261.834 240.896 241.148 252.371C220.462 263.847 197.116 269.562 173.511 268.928C149.906 268.295 126.895 261.337 106.845 248.769L104 249.38C124.392 262.597 147.941 270.035 172.172 270.912C196.402 271.79 220.42 266.074 241.701 254.366C262.982 242.658 280.741 225.39 293.111 204.376C305.481 183.363 312.006 159.38 312 134.947C312 134.623 312 134.312 312 134C311.345 134.698 310.652 135.396 309.959 136.094Z" fill="#FFB800"/>
<path d="M310.034 133L312 130.933C311.31 109.826 305.775 89.1721 295.836 70.6104C285.897 52.0488 271.826 36.09 254.74 24L252 24.5479C269.543 36.5868 283.973 52.7238 294.073 71.5984C304.173 90.473 309.647 111.532 310.034 133V133Z" fill="#FFB800"/>
<path d="M176.926 23.0421C190.976 23.0292 204.9 25.7012 217.96 30.9161L221 29.9583C205.237 23.2776 188.178 20.2668 171.097 21.1508C154.016 22.0348 137.354 26.7907 122.355 35.0634C107.356 43.3361 94.4074 54.9119 84.476 68.9267C74.5446 82.9414 67.8869 99.0329 65 116C65.8034 115.303 66.6191 114.619 67.4719 113.948C72.4263 88.3785 86.0495 65.3347 106.013 48.754C125.977 32.1733 151.043 23.085 176.926 23.0421Z" fill="#FFB800"/>
<path d="M177.263 246.968C163.889 246.981 150.623 244.573 138.104 239.86L135 240.826C150.607 247.093 167.408 249.813 184.192 248.79C200.976 247.767 217.324 243.027 232.056 234.912C246.789 226.798 259.539 215.51 269.386 201.863C279.233 188.217 285.932 172.553 289 156L286.526 158.068C281.25 183.18 267.516 205.715 247.625 221.899C227.735 238.083 202.894 246.933 177.263 246.968V246.968Z" fill="#FFB800"/>
<path d="M288.973 134.89C288.97 141.295 288.424 147.688 287.341 154L289.726 151.946C293.402 127.437 289.071 102.388 277.386 80.5738C265.701 58.7595 247.295 41.3612 224.941 31L222 31.9088C241.889 40.6635 258.815 55.0655 270.709 73.3543C282.602 91.6431 288.949 113.026 288.973 134.89Z" fill="#FFB800"/>
<path d="M65.0358 135.532C65.0339 129.661 65.4942 123.798 66.4124 118C65.6187 118.659 64.8374 119.329 64.0685 120C60.6837 144.578 65.3909 169.591 77.476 191.247C89.5611 212.902 108.365 230.018 131.036 240L134 239.068C113.594 230.549 96.1587 216.173 83.8874 197.751C71.6162 179.328 65.0572 157.68 65.0358 135.532V135.532Z" fill="#FFB800"/>
<path d="M134 238.545C135.238 239.055 136.477 239.54 137.715 240C164.596 231.094 190.585 219.677 215.342 205.898C240.448 192.173 264.201 176.086 286.282 157.855C286.542 156.612 286.789 155.293 287 154C264.408 172.956 240.002 189.619 214.141 203.747C188.621 217.943 161.78 229.598 134 238.545V238.545Z" fill="#FFB800"/>
<path d="M289.635 152.214C289.452 153.443 289.232 154.746 289 156C296.525 149.583 303.55 143.068 310 136.503C310 136.122 310 135.741 310 135.373C310 134.573 310 133.787 310 133C303.745 139.466 296.941 145.895 289.635 152.214Z" fill="#FFB800"/>
<path d="M131.475 240C122.022 242.88 112.793 245.263 104 247.126C104.971 247.759 105.955 248.367 106.939 249C116.056 247.001 125.447 244.481 135 241.49C133.817 241.018 132.633 240.521 131.475 240Z" fill="#FFB800"/>
<path d="M349.68 40.2925C339.356 21.3246 311.664 13.5509 271.736 18.4141C265.346 19.1977 258.76 20.3047 252 21.6853C252.937 22.3197 253.875 22.9291 254.8 23.6132C267.549 20.9789 280.519 19.5795 293.532 19.4341C319.904 19.4341 339.393 26.5983 347.497 41.499C357.365 59.5091 349.051 86.2756 324.246 116.798C320.545 121.342 316.557 125.903 312.281 130.48C312.281 131.649 312.281 132.818 312.281 134C317.215 128.826 321.82 123.635 326.096 118.428C351.666 86.997 360.017 59.2728 349.68 40.2925Z" fill="#FFB800"/>
<path d="M60.7354 251.561C34.2265 251.561 14.6577 244.394 6.51535 229.5C-3.39917 211.47 4.94154 184.706 29.8766 154.171C33.6028 149.609 37.6264 145.046 41.9475 140.484C41.9475 139.327 41.8607 138.17 41.8483 137C36.891 142.176 32.2064 147.39 27.9556 152.591C2.35131 183.972 -6.03878 211.719 4.3343 230.695C12.6997 245.974 32.3676 254 60.6736 254C68.0237 253.968 75.3653 253.494 82.659 252.581C89.562 251.748 96.7004 250.528 104 248.998C103.033 248.376 102.079 247.754 101.137 247.082C87.8489 249.901 74.3164 251.402 60.7354 251.561V251.561Z" fill="#FFB800"/>
<path d="M103.928 247L101 247.46C101.989 247.98 102.991 248.46 104.006 249L107 248.51C105.972 248.02 104.944 247.51 103.928 247Z" fill="#FFB800"/>
<path d="M310 132.84C310 133.55 310 134.259 310 134.98C310 135.313 310 135.656 310 136C310.683 135.379 311.341 134.758 312 134.137C312 133.084 312 132.042 312 131L310 132.84Z" fill="#FFB800"/>
<path d="M44 138.794C44 137.543 44 136.278 44 135L42 137.233C42 138.498 41.9999 139.749 42.0987 141L44 138.794Z" fill="#FFB800"/>
<path d="M251.549 25L254 24.3367C253.176 23.5377 252.341 22.8291 251.505 22L249 22.6935C249.857 23.4472 250.703 24.2161 251.549 25Z" fill="#FFB800"/>
<path d="M67 114C66.1951 114.697 65.3902 115.406 64.5609 116.129C64.3536 117.419 64.1585 118.71 64 120C64.7561 119.303 65.5243 118.606 66.3048 117.923C66.5243 116.615 66.7561 115.308 67 114Z" fill="#FFB800"/>
<path d="M286 158L289.175 155.891C289.476 154.627 289.762 153.301 290 152L286.937 154.084C286.651 155.398 286.333 156.699 286 158Z" fill="#FFB800"/>
<path d="M218 30.7817C219.336 31.1675 220.552 31.5736 221.821 32L225 31.2589C223.771 30.8325 222.529 30.4061 221.286 30L218 30.7817Z" fill="#FFB800"/>
<path d="M134.133 239L131 239.769C132.219 240.2 133.465 240.61 134.71 241L138 240.2C136.702 239.821 135.418 239.421 134.133 239Z" fill="#FFB800"/>
</svg>
