<svg id="fire" width="120" height="137" viewBox="0 0 120 137" fill="none" xmlns="http://www.w3.org/2000/svg">
	<path d="M86.6216 136.261C86.2702 136.457 85.8719 136.552 85.47 136.536C85.0682 136.52 84.6783 136.394 84.3429 136.172C83.2574 135.325 83.6104 133.582 84.0007 132.42C84.536 130.729 85.89 124.949 81.3157 122.419C79.9624 121.87 78.5386 121.516 77.0867 121.367L76.53 121.292C75.5249 121.122 73.776 121.047 71.5796 120.98C61.2373 120.609 39.6349 119.864 31.6955 105.257C29.6166 101.425 29.6362 96.9752 29.6567 92.2628C29.7171 89.6333 29.6181 87.0024 29.3601 84.3846C28.9842 80.7783 28.1215 77.2392 26.7957 73.8639C24.4767 68.5938 20.0019 67.9419 18.1379 68.762C13.8374 70.6544 12.437 76.1632 11.4599 81.18C11.4077 81.6627 11.2247 82.1219 10.9307 82.5079C10.6367 82.8939 10.2428 83.1921 9.79161 83.3702C9.33794 83.4851 8.86118 83.4717 8.41439 83.3315C7.96761 83.1913 7.56834 82.9299 7.261 82.5762C6.19409 81.3839 5.35207 80.0078 4.77594 78.5149C2.69705 73.8345 1.3699 68.8554 0.843565 63.7618C0.16154 58.8641 0.41181 53.8824 1.58119 49.0798C4.63473 38.483 10.6805 28.9969 18.9923 21.7607C36.1258 6.03806 63.5961 0.852549 63.8179 0.827775C69.8131 -0.121168 90.0517 -2.34289 99.1275 8.99663C99.4208 9.3192 99.6156 9.7191 99.6887 10.1489C99.7618 10.5787 99.7103 11.0204 99.5402 11.4215C98.8647 12.5633 97.2133 12.4454 95.8649 12.2233C94.5166 12.0011 86.7328 11.7276 85.7429 16.517C85.5823 17.025 85.5982 17.5727 85.7884 18.0708C85.9785 18.5689 86.3315 18.988 86.7899 19.2598C86.9181 19.3199 87.4987 19.5158 88.0618 19.7049C93.0714 21.3739 108.305 26.4506 114.65 40.8702C121.532 56.5098 119.979 67.9832 119.338 71.1194C119.236 71.6155 118.667 74.1229 116.818 74.5143C114.969 74.9056 113.369 72.6245 112.868 71.8837C111.607 70.0072 104.93 60.8155 97.4253 64.1177C91.0172 66.9374 89.2921 73.3608 92.7867 81.3026C93.5167 82.9617 94.592 84.8766 95.7829 86.9882C102.568 99.1028 112.871 117.329 87.1318 136.066L86.6216 136.261ZM85.7681 134.322L85.9508 134.241C110.093 116.701 100.726 100.073 93.9278 87.9938C92.7369 85.8822 91.6065 83.875 90.8174 82.0817C86.0668 71.2854 90.6622 64.6765 96.5586 62.0819C103.576 58.9941 110.482 64.4445 114.607 70.58C115.803 72.3398 116.376 72.3206 116.376 72.3206C116.61 72.2904 117.056 71.4535 117.217 70.5964C117.834 67.6021 119.312 56.6858 112.683 41.6197C106.719 28.0662 92.1653 23.2141 87.3731 21.6097C86.7824 21.4559 86.206 21.2516 85.6502 20.999C84.7913 20.4951 84.1257 19.7176 83.7601 18.7908C83.3945 17.864 83.3499 16.8416 83.6335 15.8871C84.8062 10.1582 92.727 9.45409 96.1504 10.03C96.542 10.1018 96.9388 10.1415 97.3369 10.1486C88.8728 -0.164147 69.7689 1.89324 64.125 2.84772C63.8789 2.88321 37.0592 7.92803 20.3745 23.2493C12.3496 30.2127 6.51363 39.3554 3.57208 49.5725C2.49039 54.1167 2.26357 58.8235 2.90322 63.4525C3.40865 68.3251 4.67995 73.088 6.67006 77.565C7.14536 78.8325 7.84341 80.0048 8.73121 81.0264C8.95895 81.2466 9.11154 81.2959 9.13591 81.2852C9.16028 81.2745 9.29181 81.1438 9.36327 80.7774C10.1425 76.7651 11.5897 69.3136 17.2669 66.8155C20.3369 65.4646 26.0151 66.8685 28.7206 73.0169C30.1438 76.5918 31.0666 80.3461 31.4628 84.1729C31.7347 86.8799 31.8393 89.601 31.776 92.3205C31.7417 96.704 31.7391 100.928 33.5667 104.288C40.9635 117.794 61.6589 118.56 71.639 118.901C73.9299 118.985 75.7329 119.051 76.857 119.226L77.3718 119.305C79.0743 119.47 80.7396 119.907 82.3042 120.6C87.0525 123.229 87.3552 128.775 85.9883 133.104C85.8734 133.501 85.7997 133.909 85.7681 134.322Z" />
</svg>
